<svg xmlns="http://www.w3.org/2000/svg" version="1.1" xmlns:xlink="http://www.w3.org/1999/xlink" xmlns:svgjs="http://svgjs.com/svgjs" width="1440" height="768" preserveAspectRatio="none" viewBox="0 0 1440 768">
    <g mask="url(&quot;#SvgjsMask1916&quot;)" fill="none">
        <rect width="1440" height="768" x="0" y="0" fill="url(#SvgjsLinearGradient1917)"></rect>
        <path d="M-170.97 68.56 a239.53 239.53 0 1 0 479.06 0 a239.53 239.53 0 1 0 -479.06 0z" fill="rgba(202, 209, 214, 0.4)" class="triangle-float1"></path>
        <path d="M-57.11 -45.29 a11.82 11.82 0 1 0 23.64 0 a11.82 11.82 0 1 0 -23.64 0z" fill="rgba(202, 209, 214, 0.4)" class="triangle-float1"></path>
        <path d="M8.988963204714693 244.63820568853941L221.07328144015696 154.61375368461074 131.04882943622826-57.47056455083151-81.035488799214 32.55388745309716z" fill="rgba(202, 209, 214, 0.4)" class="triangle-float2"></path>
        <path d="M1394.6336778160571-101.46924552192486L1205.9010468118734 30.682765413356165 1338.0530577471545 219.41539641753985 1526.785688751338 87.26338548225884z" fill="rgba(202, 209, 214, 0.4)" class="triangle-float3"></path>
        <path d="M1543.2276931208717 95.72167301211302L1398.2322750229891-83.33275650757302 1219.1778455033032 61.66266159030958 1364.1732636011857 240.71709110999564z" fill="rgba(202, 209, 214, 0.4)" class="triangle-float1"></path>
        <path d="M1427.777,288.414C1489.033,290.88,1559.809,288.391,1591.061,235.649C1622.658,182.323,1592.658,117.728,1560.206,64.918C1529.723,15.313,1485.977,-28.436,1427.777,-30.064C1367.071,-31.763,1311.544,4.15,1281.858,57.13C1252.82,108.954,1254.078,173.119,1285.776,223.36C1315.551,270.554,1372.02,286.17,1427.777,288.414" fill="rgba(202, 209, 214, 0.4)" class="triangle-float2"></path>
        <path d="M138.96110361399758 568.1494526729367L-14.054402012894514 554.7623305868964 42.37266767149109 790.9791500702547z" fill="rgba(202, 209, 214, 0.4)" class="triangle-float1"></path>
        <path d="M158.31,929.486C214.429,929.994,263.095,897.839,294.613,851.405C331.5,797.061,364.305,729.582,333.303,671.678C301.207,611.73,226.309,596.591,158.31,596.822C90.814,597.051,16.683,613.07,-14.639,672.858C-44.613,730.074,-9.885,795.413,26.213,848.977C57.1,894.809,103.044,928.986,158.31,929.486" fill="rgba(202, 209, 214, 0.4)" class="triangle-float1"></path>
        <path d="M-110.69 622.7 a118.99 118.99 0 1 0 237.98 0 a118.99 118.99 0 1 0 -237.98 0z" fill="rgba(202, 209, 214, 0.4)" class="triangle-float2"></path>
        <path d="M1158 640.4 a154.4 154.4 0 1 0 308.8 0 a154.4 154.4 0 1 0 -308.8 0z" fill="rgba(202, 209, 214, 0.4)" class="triangle-float3"></path>
        <path d="M1316.3487483155918 516.3487483155919L1201.1487483155918 715.8810013475266 1400.6810013475265 831.0810013475266 1515.8810013475265 631.5487483155919z" fill="rgba(202, 209, 214, 0.4)" class="triangle-float3"></path>
        <path d="M1341.1620922074612 555.112636074735L1209.501194819617 634.2224843809192 1393.9964159728156 792.1589063095937z" fill="rgba(202, 209, 214, 0.4)" class="triangle-float3"></path>
    </g>
    <defs>
        <mask id="SvgjsMask1916">
            <rect width="1440" height="768" fill="#ffffff"></rect>
        </mask>
        <linearGradient x1="11.67%" y1="-21.87%" x2="88.33%" y2="121.87%" gradientUnits="userSpaceOnUse" id="SvgjsLinearGradient1917">
            <stop stop-color="rgba(83, 105, 128, 1)" offset="0"></stop>
            <stop stop-color="rgba(255, 255, 255, 1)" offset="1"></stop>
        </linearGradient>
        <style>
            @keyframes float1 {
                0%{transform: translate(0, 0)}
                50%{transform: translate(-10px, 0)}
                100%{transform: translate(0, 0)}
            }

            .triangle-float1 {
                animation: float1 5s infinite;
            }

            @keyframes float2 {
                0%{transform: translate(0, 0)}
                50%{transform: translate(-5px, -5px)}
                100%{transform: translate(0, 0)}
            }

            .triangle-float2 {
                animation: float2 4s infinite;
            }

            @keyframes float3 {
                0%{transform: translate(0, 0)}
                50%{transform: translate(0, -10px)}
                100%{transform: translate(0, 0)}
            }

            .triangle-float3 {
                animation: float3 6s infinite;
            }
        </style>
    </defs>
</svg>
